<svg width="25" height="25" viewBox="0 0 25 25" fill="none" xmlns="http://www.w3.org/2000/svg">
<path fill-rule="evenodd" clip-rule="evenodd" d="M10.0915 15.707C13.7805 15.707 16.9335 16.266 16.9335 18.499C16.9335 20.732 13.8015 21.307 10.0915 21.307C6.40151 21.307 3.24951 20.753 3.24951 18.519C3.24951 16.285 6.38051 15.707 10.0915 15.707Z" stroke="#2948FF" stroke-width="1.5" stroke-linecap="round" stroke-linejoin="round"/>
<path fill-rule="evenodd" clip-rule="evenodd" d="M10.0916 12.52C7.66957 12.52 5.70557 10.557 5.70557 8.135C5.70557 5.713 7.66957 3.75 10.0916 3.75C12.5126 3.75 14.4766 5.713 14.4766 8.135C14.4856 10.548 12.5356 12.511 10.1226 12.52H10.0916Z" stroke="#2948FF" stroke-width="1.5" stroke-linecap="round" stroke-linejoin="round"/>
<path d="M16.9829 11.3823C18.5839 11.1573 19.8169 9.78326 19.8199 8.12026C19.8199 6.48126 18.6249 5.12126 17.0579 4.86426" stroke="#2948FF" stroke-width="1.5" stroke-linecap="round" stroke-linejoin="round"/>
<path d="M19.0952 15.2324C20.6462 15.4634 21.7292 16.0074 21.7292 17.1274C21.7292 17.8984 21.2192 18.3984 20.3952 18.7114" stroke="#2948FF" stroke-width="1.5" stroke-linecap="round" stroke-linejoin="round"/>
</svg>
